# Tiled2Unity generated file. Do not modify by hand.
# Wavefront file for 'TestArena_mesh_0006.obj'

# Vertices (Count = 240)
v 0 -1 0
v -1 -1 0
v -1 0 0
v 0 0 0
v -1 -1 0
v -2 -1 0
v -2 0 0
v -1 0 0
v -2 -1 0
v -3 -1 0
v -3 0 0
v -2 0 0
v -3 -1 0
v -4 -1 0
v -4 0 0
v -3 0 0
v -4 -1 0
v -5 -1 0
v -5 0 0
v -4 0 0
v -5 -1 0
v -6 -1 0
v -6 0 0
v -5 0 0
v -6 -1 0
v -7 -1 0
v -7 0 0
v -6 0 0
v -7 -1 0
v -8 -1 0
v -8 0 0
v -7 0 0
v -8 -1 0
v -9 -1 0
v -9 0 0
v -8 0 0
v -9 -1 0
v -10 -1 0
v -10 0 0
v -9 0 0
v -10 -1 0
v -11 -1 0
v -11 0 0
v -10 0 0
v -11 -1 0
v -12 -1 0
v -12 0 0
v -11 0 0
v -12 -1 0
v -13 -1 0
v -13 0 0
v -12 0 0
v -13 -1 0
v -14 -1 0
v -14 0 0
v -13 0 0
v -14 -1 0
v -15 -1 0
v -15 0 0
v -14 0 0
v -15 -1 0
v -16 -1 0
v -16 0 0
v -15 0 0
v 0 -2 0
v -1 -2 0
v -1 -1 0
v 0 -1 0
v -15 -2 0
v -16 -2 0
v -16 -1 0
v -15 -1 0
v 0 -3 0
v -1 -3 0
v -1 -2 0
v 0 -2 0
v -15 -3 0
v -16 -3 0
v -16 -2 0
v -15 -2 0
v 0 -4 0
v -1 -4 0
v -1 -3 0
v 0 -3 0
v -15 -4 0
v -16 -4 0
v -16 -3 0
v -15 -3 0
v 0 -5 0
v -1 -5 0
v -1 -4 0
v 0 -4 0
v -15 -5 0
v -16 -5 0
v -16 -4 0
v -15 -4 0
v 0 -6 0
v -1 -6 0
v -1 -5 0
v 0 -5 0
v -15 -6 0
v -16 -6 0
v -16 -5 0
v -15 -5 0
v 0 -7 0
v -1 -7 0
v -1 -6 0
v 0 -6 0
v -15 -7 0
v -16 -7 0
v -16 -6 0
v -15 -6 0
v 0 -8 0
v -1 -8 0
v -1 -7 0
v 0 -7 0
v -15 -8 0
v -16 -8 0
v -16 -7 0
v -15 -7 0
v 0 -9 0
v -1 -9 0
v -1 -8 0
v 0 -8 0
v -15 -9 0
v -16 -9 0
v -16 -8 0
v -15 -8 0
v 0 -10 0
v -1 -10 0
v -1 -9 0
v 0 -9 0
v -15 -10 0
v -16 -10 0
v -16 -9 0
v -15 -9 0
v 0 -11 0
v -1 -11 0
v -1 -10 0
v 0 -10 0
v -15 -11 0
v -16 -11 0
v -16 -10 0
v -15 -10 0
v 0 -12 0
v -1 -12 0
v -1 -11 0
v 0 -11 0
v -15 -12 0
v -16 -12 0
v -16 -11 0
v -15 -11 0
v 0 -13 0
v -1 -13 0
v -1 -12 0
v 0 -12 0
v -15 -13 0
v -16 -13 0
v -16 -12 0
v -15 -12 0
v 0 -14 0
v -1 -14 0
v -1 -13 0
v 0 -13 0
v -15 -14 0
v -16 -14 0
v -16 -13 0
v -15 -13 0
v 0 -15 0
v -1 -15 0
v -1 -14 0
v 0 -14 0
v -15 -15 0
v -16 -15 0
v -16 -14 0
v -15 -14 0
v 0 -16 0
v -1 -16 0
v -1 -15 0
v 0 -15 0
v -1 -16 0
v -2 -16 0
v -2 -15 0
v -1 -15 0
v -2 -16 0
v -3 -16 0
v -3 -15 0
v -2 -15 0
v -3 -16 0
v -4 -16 0
v -4 -15 0
v -3 -15 0
v -4 -16 0
v -5 -16 0
v -5 -15 0
v -4 -15 0
v -5 -16 0
v -6 -16 0
v -6 -15 0
v -5 -15 0
v -6 -16 0
v -7 -16 0
v -7 -15 0
v -6 -15 0
v -7 -16 0
v -8 -16 0
v -8 -15 0
v -7 -15 0
v -8 -16 0
v -9 -16 0
v -9 -15 0
v -8 -15 0
v -9 -16 0
v -10 -16 0
v -10 -15 0
v -9 -15 0
v -10 -16 0
v -11 -16 0
v -11 -15 0
v -10 -15 0
v -11 -16 0
v -12 -16 0
v -12 -15 0
v -11 -15 0
v -12 -16 0
v -13 -16 0
v -13 -15 0
v -12 -15 0
v -13 -16 0
v -14 -16 0
v -14 -15 0
v -13 -15 0
v -14 -16 0
v -15 -16 0
v -15 -15 0
v -14 -15 0
v -15 -16 0
v -16 -16 0
v -16 -15 0
v -15 -15 0

# Texture cooridinates (Count = 19)
vt 0.4761905 0.4347826
vt 0.5238096 0.4347826
vt 0.5238096 0.4782609
vt 0.4761905 0.4782609
vt 0.4761905 0.2608696
vt 0.5238096 0.2608696
vt 0.5238096 0.3043478
vt 0.4761905 0.3043478
vt 0.5714286 0.4347826
vt 0.5714286 0.4782609
vt 0.5714286 0.3043478
vt 0.5714286 0.3478261
vt 0.5238096 0.3478261
vt 0.4285714 0.3043478
vt 0.4761905 0.3478261
vt 0.4285714 0.3478261
vt 0.4761905 0.3913044
vt 0.5238096 0.3913044
vt 0.5714286 0.3913044

# Normal
vn 0 0 -1

# Mesh description
g TestArena_mesh_0006

# Faces
f 1/1/1 2/2/1 3/3/1 4/4/1
f 5/5/1 6/6/1 7/7/1 8/8/1
f 9/5/1 10/6/1 11/7/1 12/8/1
f 13/5/1 14/6/1 15/7/1 16/8/1
f 17/5/1 18/6/1 19/7/1 20/8/1
f 21/5/1 22/6/1 23/7/1 24/8/1
f 25/5/1 26/6/1 27/7/1 28/8/1
f 29/5/1 30/6/1 31/7/1 32/8/1
f 33/5/1 34/6/1 35/7/1 36/8/1
f 37/5/1 38/6/1 39/7/1 40/8/1
f 41/5/1 42/6/1 43/7/1 44/8/1
f 45/5/1 46/6/1 47/7/1 48/8/1
f 49/5/1 50/6/1 51/7/1 52/8/1
f 53/5/1 54/6/1 55/7/1 56/8/1
f 57/5/1 58/6/1 59/7/1 60/8/1
f 61/2/1 62/9/1 63/10/1 64/3/1
f 65/7/1 66/11/1 67/12/1 68/13/1
f 69/14/1 70/8/1 71/15/1 72/16/1
f 73/7/1 74/11/1 75/12/1 76/13/1
f 77/14/1 78/8/1 79/15/1 80/16/1
f 81/7/1 82/11/1 83/12/1 84/13/1
f 85/14/1 86/8/1 87/15/1 88/16/1
f 89/7/1 90/11/1 91/12/1 92/13/1
f 93/14/1 94/8/1 95/15/1 96/16/1
f 97/7/1 98/11/1 99/12/1 100/13/1
f 101/14/1 102/8/1 103/15/1 104/16/1
f 105/7/1 106/11/1 107/12/1 108/13/1
f 109/14/1 110/8/1 111/15/1 112/16/1
f 113/7/1 114/11/1 115/12/1 116/13/1
f 117/14/1 118/8/1 119/15/1 120/16/1
f 121/7/1 122/11/1 123/12/1 124/13/1
f 125/14/1 126/8/1 127/15/1 128/16/1
f 129/7/1 130/11/1 131/12/1 132/13/1
f 133/14/1 134/8/1 135/15/1 136/16/1
f 137/7/1 138/11/1 139/12/1 140/13/1
f 141/14/1 142/8/1 143/15/1 144/16/1
f 145/7/1 146/11/1 147/12/1 148/13/1
f 149/14/1 150/8/1 151/15/1 152/16/1
f 153/7/1 154/11/1 155/12/1 156/13/1
f 157/14/1 158/8/1 159/15/1 160/16/1
f 161/7/1 162/11/1 163/12/1 164/13/1
f 165/14/1 166/8/1 167/15/1 168/16/1
f 169/7/1 170/11/1 171/12/1 172/13/1
f 173/14/1 174/8/1 175/15/1 176/16/1
f 177/17/1 178/18/1 179/2/1 180/1/1
f 181/15/1 182/13/1 183/18/1 184/17/1
f 185/15/1 186/13/1 187/18/1 188/17/1
f 189/15/1 190/13/1 191/18/1 192/17/1
f 193/15/1 194/13/1 195/18/1 196/17/1
f 197/15/1 198/13/1 199/18/1 200/17/1
f 201/15/1 202/13/1 203/18/1 204/17/1
f 205/15/1 206/13/1 207/18/1 208/17/1
f 209/15/1 210/13/1 211/18/1 212/17/1
f 213/15/1 214/13/1 215/18/1 216/17/1
f 217/15/1 218/13/1 219/18/1 220/17/1
f 221/15/1 222/13/1 223/18/1 224/17/1
f 225/15/1 226/13/1 227/18/1 228/17/1
f 229/15/1 230/13/1 231/18/1 232/17/1
f 233/15/1 234/13/1 235/18/1 236/17/1
f 237/18/1 238/19/1 239/9/1 240/2/1

