# Tiled2Unity generated file. Do not modify by hand.
# Wavefront file for 'Test_Map_mesh_0008.obj'

# Vertices (Count = 56)
v -3 -8 0
v -4 -8 0
v -4 -7 0
v -3 -7 0
v -10 -11 0
v -11 -11 0
v -11 -10 0
v -10 -10 0
v -11 -11 0
v -12 -11 0
v -12 -10 0
v -11 -10 0
v -12 -11 0
v -13 -11 0
v -13 -10 0
v -12 -10 0
v -13 -11 0
v -14 -11 0
v -14 -10 0
v -13 -10 0
v -14 -11 0
v -15 -11 0
v -15 -10 0
v -14 -10 0
v -15 -11 0
v -16 -11 0
v -16 -10 0
v -15 -10 0
v -4 -16 0
v -5 -16 0
v -5 -15 0
v -4 -15 0
v -5 -16 0
v -6 -16 0
v -6 -15 0
v -5 -15 0
v -6 -16 0
v -7 -16 0
v -7 -15 0
v -6 -15 0
v -7 -16 0
v -8 -16 0
v -8 -15 0
v -7 -15 0
v -8 -16 0
v -9 -16 0
v -9 -15 0
v -8 -15 0
v -9 -16 0
v -10 -16 0
v -10 -15 0
v -9 -15 0
v -10 -16 0
v -11 -16 0
v -11 -15 0
v -10 -15 0

# Texture cooridinates (Count = 22)
vt 0.3125 0.875
vt 0.375 0.875
vt 0.375 1
vt 0.3125 1
vt 0.75 0.875
vt 0.8125 0.875
vt 0.8125 1
vt 0.75 1
vt 0.875 0.875
vt 0.875 1
vt 0.9375 0.875
vt 0.9375 1
vt 0.4375 0.875
vt 0.5 0.875
vt 0.5 1
vt 0.4375 1
vt 0.5625 0.875
vt 0.5625 1
vt 0.625 0.875
vt 0.625 1
vt 0.6875 0.875
vt 0.6875 1

# Normal
vn 0 0 -1

# Mesh description
g Test_Map_mesh_0008

# Faces
f 1/1/1 2/2/1 3/3/1 4/4/1
f 5/5/1 6/6/1 7/7/1 8/8/1
f 9/6/1 10/9/1 11/10/1 12/7/1
f 13/9/1 14/11/1 15/12/1 16/10/1
f 17/5/1 18/6/1 19/7/1 20/8/1
f 21/6/1 22/9/1 23/10/1 24/7/1
f 25/9/1 26/11/1 27/12/1 28/10/1
f 29/13/1 30/14/1 31/15/1 32/16/1
f 33/14/1 34/17/1 35/18/1 36/15/1
f 37/17/1 38/19/1 39/20/1 40/18/1
f 41/13/1 42/14/1 43/15/1 44/16/1
f 45/14/1 46/17/1 47/18/1 48/15/1
f 49/17/1 50/19/1 51/20/1 52/18/1
f 53/19/1 54/21/1 55/22/1 56/20/1

