# Tiled2Unity generated file. Do not modify by hand.
# Wavefront file for 'Test_Map_mesh_0005.obj'

# Vertices (Count = 84)
v -6 -8 0
v -7 -8 0
v -7 -7 0
v -6 -7 0
v -6 -9 0
v -7 -9 0
v -7 -8 0
v -6 -8 0
v -6 -10 0
v -7 -10 0
v -7 -9 0
v -6 -9 0
v -6 -11 0
v -7 -11 0
v -7 -10 0
v -6 -10 0
v 0 -12 0
v -1 -12 0
v -1 -11 0
v 0 -11 0
v -6 -12 0
v -7 -12 0
v -7 -11 0
v -6 -11 0
v -6 -13 0
v -7 -13 0
v -7 -12 0
v -6 -12 0
v -3 -14 0
v -4 -14 0
v -4 -13 0
v -3 -13 0
v -6 -14 0
v -7 -14 0
v -7 -13 0
v -6 -13 0
v -7 -14 0
v -8 -14 0
v -8 -13 0
v -7 -13 0
v -3 -15 0
v -4 -15 0
v -4 -14 0
v -3 -14 0
v -4 -15 0
v -5 -15 0
v -5 -14 0
v -4 -14 0
v -6 -15 0
v -7 -15 0
v -7 -14 0
v -6 -14 0
v -7 -15 0
v -8 -15 0
v -8 -14 0
v -7 -14 0
v -8 -15 0
v -9 -15 0
v -9 -14 0
v -8 -14 0
v -2 -16 0
v -3 -16 0
v -3 -15 0
v -2 -15 0
v -3 -16 0
v -4 -16 0
v -4 -15 0
v -3 -15 0
v -4 -16 0
v -5 -16 0
v -5 -15 0
v -4 -15 0
v -6 -16 0
v -7 -16 0
v -7 -15 0
v -6 -15 0
v -7 -16 0
v -8 -16 0
v -8 -15 0
v -7 -15 0
v -8 -16 0
v -9 -16 0
v -9 -15 0
v -8 -15 0

# Texture cooridinates (Count = 37)
vt 0.3125 0.875
vt 0.375 0.875
vt 0.375 1
vt 0.3125 1
vt 0.3125 0.75
vt 0.375 0.75
vt 0.4375 0.625
vt 0.5 0.625
vt 0.5 0.75
vt 0.4375 0.75
vt 0.3125 0.5
vt 0.375 0.5
vt 0.375 0.625
vt 0.3125 0.625
vt 0.9375 0.75
vt 1 0.75
vt 1 0.875
vt 0.9375 0.875
vt 0.4375 0.5
vt 0.5 0.5
vt 0.6875 0
vt 0.75 0
vt 0.75 0.125
vt 0.6875 0.125
vt 0.8125 0.25
vt 0.875 0.25
vt 0.875 0.375
vt 0.8125 0.375
vt 0.5 0.125
vt 0.5625 0.125
vt 0.5625 0.25
vt 0.5 0.25
vt 0.625 0.125
vt 0.625 0.25
vt 0.5 0
vt 0.5625 0
vt 0.625 0

# Normal
vn 0 0 -1

# Mesh description
g Test_Map_mesh_0005

# Faces
f 1/1/1 2/2/1 3/3/1 4/4/1
f 5/5/1 6/6/1 7/2/1 8/1/1
f 9/7/1 10/8/1 11/9/1 12/10/1
f 13/11/1 14/12/1 15/13/1 16/14/1
f 17/15/1 18/16/1 19/17/1 20/18/1
f 21/19/1 22/20/1 23/8/1 24/7/1
f 25/14/1 26/13/1 27/6/1 28/5/1
f 29/21/1 30/22/1 31/23/1 32/24/1
f 33/11/1 34/12/1 35/13/1 36/14/1
f 37/25/1 38/26/1 39/27/1 40/28/1
f 41/29/1 42/30/1 43/31/1 44/32/1
f 45/30/1 46/33/1 47/34/1 48/31/1
f 49/19/1 50/20/1 51/8/1 52/7/1
f 53/25/1 54/26/1 55/27/1 56/28/1
f 57/25/1 58/26/1 59/27/1 60/28/1
f 61/21/1 62/22/1 63/23/1 64/24/1
f 65/35/1 66/36/1 67/30/1 68/29/1
f 69/36/1 70/37/1 71/33/1 72/30/1
f 73/7/1 74/8/1 75/9/1 76/10/1
f 77/25/1 78/26/1 79/27/1 80/28/1
f 81/25/1 82/26/1 83/27/1 84/28/1

