# Tiled2Unity generated file. Do not modify by hand.
# Wavefront file for 'Test_Map_mesh_0001.obj'

# Vertices (Count = 16)
v -1 -15 0
v -2 -15 0
v -2 -14 0
v -1 -14 0
v -2 -15 0
v -3 -15 0
v -3 -14 0
v -2 -14 0
v -1 -16 0
v -2 -16 0
v -2 -15 0
v -1 -15 0
v -2 -16 0
v -3 -16 0
v -3 -15 0
v -2 -15 0

# Texture cooridinates (Count = 6)
vt 0.8125 0.25
vt 0.875 0.25
vt 0.875 0.375
vt 0.8125 0.375
vt 0.9375 0.25
vt 0.9375 0.375

# Normal
vn 0 0 -1

# Mesh description
g Test_Map_mesh_0001

# Faces
f 1/1/1 2/2/1 3/3/1 4/4/1
f 5/2/1 6/5/1 7/6/1 8/3/1
f 9/1/1 10/2/1 11/3/1 12/4/1
f 13/2/1 14/5/1 15/6/1 16/3/1

