# Tiled2Unity generated file. Do not modify by hand.
# Wavefront file for 'Test_Area_mesh_0006.obj'

# Vertices (Count = 364)
v 0 -1 0
v -1 -1 0
v -1 0 0
v 0 0 0
v -10 -1 0
v -11 -1 0
v -11 0 0
v -10 0 0
v -11 -1 0
v -12 -1 0
v -12 0 0
v -11 0 0
v -12 -1 0
v -13 -1 0
v -13 0 0
v -12 0 0
v -13 -1 0
v -14 -1 0
v -14 0 0
v -13 0 0
v 0 -2 0
v -1 -2 0
v -1 -1 0
v 0 -1 0
v -10 -2 0
v -11 -2 0
v -11 -1 0
v -10 -1 0
v -11 -2 0
v -12 -2 0
v -12 -1 0
v -11 -1 0
v -12 -2 0
v -13 -2 0
v -13 -1 0
v -12 -1 0
v -13 -2 0
v -14 -2 0
v -14 -1 0
v -13 -1 0
v 0 -3 0
v -1 -3 0
v -1 -2 0
v 0 -2 0
v -10 -3 0
v -11 -3 0
v -11 -2 0
v -10 -2 0
v -11 -3 0
v -12 -3 0
v -12 -2 0
v -11 -2 0
v -12 -3 0
v -13 -3 0
v -13 -2 0
v -12 -2 0
v -13 -3 0
v -14 -3 0
v -14 -2 0
v -13 -2 0
v 0 -4 0
v -1 -4 0
v -1 -3 0
v 0 -3 0
v -10 -4 0
v -11 -4 0
v -11 -3 0
v -10 -3 0
v -11 -4 0
v -12 -4 0
v -12 -3 0
v -11 -3 0
v -12 -4 0
v -13 -4 0
v -13 -3 0
v -12 -3 0
v -13 -4 0
v -14 -4 0
v -14 -3 0
v -13 -3 0
v 0 -5 0
v -1 -5 0
v -1 -4 0
v 0 -4 0
v -10 -5 0
v -11 -5 0
v -11 -4 0
v -10 -4 0
v -11 -5 0
v -12 -5 0
v -12 -4 0
v -11 -4 0
v -12 -5 0
v -13 -5 0
v -13 -4 0
v -12 -4 0
v -13 -5 0
v -14 -5 0
v -14 -4 0
v -13 -4 0
v 0 -6 0
v -1 -6 0
v -1 -5 0
v 0 -5 0
v -10 -6 0
v -11 -6 0
v -11 -5 0
v -10 -5 0
v -11 -6 0
v -12 -6 0
v -12 -5 0
v -11 -5 0
v -12 -6 0
v -13 -6 0
v -13 -5 0
v -12 -5 0
v -13 -6 0
v -14 -6 0
v -14 -5 0
v -13 -5 0
v 0 -7 0
v -1 -7 0
v -1 -6 0
v 0 -6 0
v -10 -7 0
v -11 -7 0
v -11 -6 0
v -10 -6 0
v -11 -7 0
v -12 -7 0
v -12 -6 0
v -11 -6 0
v -12 -7 0
v -13 -7 0
v -13 -6 0
v -12 -6 0
v -13 -7 0
v -14 -7 0
v -14 -6 0
v -13 -6 0
v 0 -8 0
v -1 -8 0
v -1 -7 0
v 0 -7 0
v -1 -8 0
v -2 -8 0
v -2 -7 0
v -1 -7 0
v -2 -8 0
v -3 -8 0
v -3 -7 0
v -2 -7 0
v -3 -8 0
v -4 -8 0
v -4 -7 0
v -3 -7 0
v -4 -8 0
v -5 -8 0
v -5 -7 0
v -4 -7 0
v -5 -8 0
v -6 -8 0
v -6 -7 0
v -5 -7 0
v -6 -8 0
v -7 -8 0
v -7 -7 0
v -6 -7 0
v -7 -8 0
v -8 -8 0
v -8 -7 0
v -7 -7 0
v -8 -8 0
v -9 -8 0
v -9 -7 0
v -8 -7 0
v -9 -8 0
v -10 -8 0
v -10 -7 0
v -9 -7 0
v -10 -8 0
v -11 -8 0
v -11 -7 0
v -10 -7 0
v -11 -8 0
v -12 -8 0
v -12 -7 0
v -11 -7 0
v -12 -8 0
v -13 -8 0
v -13 -7 0
v -12 -7 0
v -13 -8 0
v -14 -8 0
v -14 -7 0
v -13 -7 0
v 0 -9 0
v -1 -9 0
v -1 -8 0
v 0 -8 0
v -1 -9 0
v -2 -9 0
v -2 -8 0
v -1 -8 0
v -2 -9 0
v -3 -9 0
v -3 -8 0
v -2 -8 0
v -3 -9 0
v -4 -9 0
v -4 -8 0
v -3 -8 0
v -4 -9 0
v -5 -9 0
v -5 -8 0
v -4 -8 0
v -5 -9 0
v -6 -9 0
v -6 -8 0
v -5 -8 0
v -6 -9 0
v -7 -9 0
v -7 -8 0
v -6 -8 0
v -7 -9 0
v -8 -9 0
v -8 -8 0
v -7 -8 0
v -8 -9 0
v -9 -9 0
v -9 -8 0
v -8 -8 0
v -9 -9 0
v -10 -9 0
v -10 -8 0
v -9 -8 0
v -10 -9 0
v -11 -9 0
v -11 -8 0
v -10 -8 0
v -11 -9 0
v -12 -9 0
v -12 -8 0
v -11 -8 0
v -12 -9 0
v -13 -9 0
v -13 -8 0
v -12 -8 0
v -13 -9 0
v -14 -9 0
v -14 -8 0
v -13 -8 0
v 0 -10 0
v -1 -10 0
v -1 -9 0
v 0 -9 0
v -1 -10 0
v -2 -10 0
v -2 -9 0
v -1 -9 0
v -2 -10 0
v -3 -10 0
v -3 -9 0
v -2 -9 0
v -3 -10 0
v -4 -10 0
v -4 -9 0
v -3 -9 0
v -4 -10 0
v -5 -10 0
v -5 -9 0
v -4 -9 0
v -5 -10 0
v -6 -10 0
v -6 -9 0
v -5 -9 0
v -6 -10 0
v -7 -10 0
v -7 -9 0
v -6 -9 0
v -7 -10 0
v -8 -10 0
v -8 -9 0
v -7 -9 0
v -8 -10 0
v -9 -10 0
v -9 -9 0
v -8 -9 0
v -9 -10 0
v -10 -10 0
v -10 -9 0
v -9 -9 0
v -10 -10 0
v -11 -10 0
v -11 -9 0
v -10 -9 0
v -11 -10 0
v -12 -10 0
v -12 -9 0
v -11 -9 0
v -12 -10 0
v -13 -10 0
v -13 -9 0
v -12 -9 0
v -13 -10 0
v -14 -10 0
v -14 -9 0
v -13 -9 0
v 0 -11 0
v -1 -11 0
v -1 -10 0
v 0 -10 0
v -1 -11 0
v -2 -11 0
v -2 -10 0
v -1 -10 0
v -2 -11 0
v -3 -11 0
v -3 -10 0
v -2 -10 0
v -3 -11 0
v -4 -11 0
v -4 -10 0
v -3 -10 0
v -4 -11 0
v -5 -11 0
v -5 -10 0
v -4 -10 0
v -5 -11 0
v -6 -11 0
v -6 -10 0
v -5 -10 0
v -6 -11 0
v -7 -11 0
v -7 -10 0
v -6 -10 0
v -7 -11 0
v -8 -11 0
v -8 -10 0
v -7 -10 0
v -8 -11 0
v -9 -11 0
v -9 -10 0
v -8 -10 0
v -9 -11 0
v -10 -11 0
v -10 -10 0
v -9 -10 0
v -10 -11 0
v -11 -11 0
v -11 -10 0
v -10 -10 0
v -11 -11 0
v -12 -11 0
v -12 -10 0
v -11 -10 0
v -12 -11 0
v -13 -11 0
v -13 -10 0
v -12 -10 0
v -13 -11 0
v -14 -11 0
v -14 -10 0
v -13 -10 0

# Texture cooridinates (Count = 37)
vt 0.547619 0.3043478
vt 0.5714286 0.3043478
vt 0.5714286 0.3260869
vt 0.547619 0.3260869
vt 0.4285714 0.3043478
vt 0.452381 0.3043478
vt 0.452381 0.3260869
vt 0.4285714 0.3260869
vt 0.4761905 0.3043478
vt 0.4761905 0.3260869
vt 0.5 0.3043478
vt 0.5 0.3260869
vt 0.5238096 0.3043478
vt 0.5238096 0.3260869
vt 0.5714286 0.3478261
vt 0.547619 0.3478261
vt 0.452381 0.3478261
vt 0.4285714 0.3478261
vt 0.4761905 0.3478261
vt 0.5 0.3478261
vt 0.5238096 0.3478261
vt 0.5 0.4130435
vt 0.5238096 0.4130435
vt 0.5238096 0.4347826
vt 0.5 0.4347826
vt 0.4761905 0.3695652
vt 0.5 0.3695652
vt 0.5 0.3913044
vt 0.4761905 0.3913044
vt 0.5238096 0.3695652
vt 0.5238096 0.3913044
vt 0.547619 0.4130435
vt 0.547619 0.4347826
vt 0.5714286 0.4130435
vt 0.5714286 0.4347826
vt 0.547619 0.3913044
vt 0.5714286 0.3913044

# Normal
vn 0 0 -1

# Mesh description
g Test_Area_mesh_0006

# Faces
f 1/1/1 2/2/1 3/3/1 4/4/1
f 5/5/1 6/6/1 7/7/1 8/8/1
f 9/6/1 10/9/1 11/10/1 12/7/1
f 13/9/1 14/11/1 15/12/1 16/10/1
f 17/11/1 18/13/1 19/14/1 20/12/1
f 21/4/1 22/3/1 23/15/1 24/16/1
f 25/8/1 26/7/1 27/17/1 28/18/1
f 29/7/1 30/10/1 31/19/1 32/17/1
f 33/10/1 34/12/1 35/20/1 36/19/1
f 37/12/1 38/14/1 39/21/1 40/20/1
f 41/1/1 42/2/1 43/3/1 44/4/1
f 45/5/1 46/6/1 47/7/1 48/8/1
f 49/6/1 50/9/1 51/10/1 52/7/1
f 53/9/1 54/11/1 55/12/1 56/10/1
f 57/11/1 58/13/1 59/14/1 60/12/1
f 61/4/1 62/3/1 63/15/1 64/16/1
f 65/8/1 66/7/1 67/17/1 68/18/1
f 69/7/1 70/10/1 71/19/1 72/17/1
f 73/10/1 74/12/1 75/20/1 76/19/1
f 77/12/1 78/14/1 79/21/1 80/20/1
f 81/1/1 82/2/1 83/3/1 84/4/1
f 85/5/1 86/6/1 87/7/1 88/8/1
f 89/6/1 90/9/1 91/10/1 92/7/1
f 93/9/1 94/11/1 95/12/1 96/10/1
f 97/11/1 98/13/1 99/14/1 100/12/1
f 101/4/1 102/3/1 103/15/1 104/16/1
f 105/8/1 106/7/1 107/17/1 108/18/1
f 109/7/1 110/10/1 111/19/1 112/17/1
f 113/10/1 114/12/1 115/20/1 116/19/1
f 117/12/1 118/14/1 119/21/1 120/20/1
f 121/1/1 122/2/1 123/3/1 124/4/1
f 125/5/1 126/6/1 127/7/1 128/8/1
f 129/6/1 130/9/1 131/10/1 132/7/1
f 133/9/1 134/11/1 135/12/1 136/10/1
f 137/11/1 138/13/1 139/14/1 140/12/1
f 141/22/1 142/23/1 143/24/1 144/25/1
f 145/26/1 146/27/1 147/28/1 148/29/1
f 149/27/1 150/30/1 151/31/1 152/28/1
f 153/26/1 154/27/1 155/28/1 156/29/1
f 157/27/1 158/30/1 159/31/1 160/28/1
f 161/26/1 162/27/1 163/28/1 164/29/1
f 165/27/1 166/30/1 167/31/1 168/28/1
f 169/26/1 170/27/1 171/28/1 172/29/1
f 173/27/1 174/30/1 175/31/1 176/28/1
f 177/27/1 178/30/1 179/31/1 180/28/1
f 181/23/1 182/32/1 183/33/1 184/24/1
f 185/32/1 186/34/1 187/35/1 188/33/1
f 189/10/1 190/12/1 191/20/1 192/19/1
f 193/12/1 194/14/1 195/21/1 196/20/1
f 197/28/1 198/31/1 199/23/1 200/22/1
f 201/19/1 202/20/1 203/27/1 204/26/1
f 205/20/1 206/21/1 207/30/1 208/27/1
f 209/19/1 210/20/1 211/27/1 212/26/1
f 213/20/1 214/21/1 215/30/1 216/27/1
f 217/19/1 218/20/1 219/27/1 220/26/1
f 221/20/1 222/21/1 223/30/1 224/27/1
f 225/19/1 226/20/1 227/27/1 228/26/1
f 229/20/1 230/21/1 231/30/1 232/27/1
f 233/20/1 234/21/1 235/30/1 236/27/1
f 237/31/1 238/36/1 239/32/1 240/23/1
f 241/36/1 242/37/1 243/34/1 244/32/1
f 245/9/1 246/11/1 247/12/1 248/10/1
f 249/11/1 250/13/1 251/14/1 252/12/1
f 253/12/1 254/14/1 255/21/1 256/20/1
f 257/10/1 258/12/1 259/20/1 260/19/1
f 261/12/1 262/14/1 263/21/1 264/20/1
f 265/10/1 266/12/1 267/20/1 268/19/1
f 269/12/1 270/14/1 271/21/1 272/20/1
f 273/10/1 274/12/1 275/20/1 276/19/1
f 277/12/1 278/14/1 279/21/1 280/20/1
f 281/10/1 282/12/1 283/20/1 284/19/1
f 285/12/1 286/14/1 287/21/1 288/20/1
f 289/10/1 290/12/1 291/20/1 292/19/1
f 293/12/1 294/14/1 295/21/1 296/20/1
f 297/12/1 298/14/1 299/21/1 300/20/1
f 301/10/1 302/12/1 303/20/1 304/19/1
f 305/12/1 306/14/1 307/21/1 308/20/1
f 309/11/1 310/13/1 311/14/1 312/12/1
f 313/9/1 314/11/1 315/12/1 316/10/1
f 317/11/1 318/13/1 319/14/1 320/12/1
f 321/9/1 322/11/1 323/12/1 324/10/1
f 325/11/1 326/13/1 327/14/1 328/12/1
f 329/9/1 330/11/1 331/12/1 332/10/1
f 333/11/1 334/13/1 335/14/1 336/12/1
f 337/9/1 338/11/1 339/12/1 340/10/1
f 341/11/1 342/13/1 343/14/1 344/12/1
f 345/9/1 346/11/1 347/12/1 348/10/1
f 349/11/1 350/13/1 351/14/1 352/12/1
f 353/11/1 354/13/1 355/14/1 356/12/1
f 357/9/1 358/11/1 359/12/1 360/10/1
f 361/11/1 362/13/1 363/14/1 364/12/1

