# Tiled2Unity generated file. Do not modify by hand.
# Wavefront file for 'Test_Area_mesh_0004.obj'

# Vertices (Count = 320)
v 0 -10 0
v -1 -10 0
v -1 -9 0
v 0 -9 0
v -1 -10 0
v -2 -10 0
v -2 -9 0
v -1 -9 0
v -2 -10 0
v -3 -10 0
v -3 -9 0
v -2 -9 0
v -3 -10 0
v -4 -10 0
v -4 -9 0
v -3 -9 0
v -4 -10 0
v -5 -10 0
v -5 -9 0
v -4 -9 0
v -5 -10 0
v -6 -10 0
v -6 -9 0
v -5 -9 0
v -6 -10 0
v -7 -10 0
v -7 -9 0
v -6 -9 0
v -7 -10 0
v -8 -10 0
v -8 -9 0
v -7 -9 0
v -8 -10 0
v -9 -10 0
v -9 -9 0
v -8 -9 0
v -9 -10 0
v -10 -10 0
v -10 -9 0
v -9 -9 0
v -10 -10 0
v -11 -10 0
v -11 -9 0
v -10 -9 0
v -11 -10 0
v -12 -10 0
v -12 -9 0
v -11 -9 0
v -12 -10 0
v -13 -10 0
v -13 -9 0
v -12 -9 0
v -13 -10 0
v -14 -10 0
v -14 -9 0
v -13 -9 0
v 0 -11 0
v -1 -11 0
v -1 -10 0
v 0 -10 0
v -1 -11 0
v -2 -11 0
v -2 -10 0
v -1 -10 0
v -2 -11 0
v -3 -11 0
v -3 -10 0
v -2 -10 0
v -3 -11 0
v -4 -11 0
v -4 -10 0
v -3 -10 0
v -4 -11 0
v -5 -11 0
v -5 -10 0
v -4 -10 0
v -5 -11 0
v -6 -11 0
v -6 -10 0
v -5 -10 0
v -6 -11 0
v -7 -11 0
v -7 -10 0
v -6 -10 0
v -7 -11 0
v -8 -11 0
v -8 -10 0
v -7 -10 0
v -8 -11 0
v -9 -11 0
v -9 -10 0
v -8 -10 0
v -9 -11 0
v -10 -11 0
v -10 -10 0
v -9 -10 0
v -10 -11 0
v -11 -11 0
v -11 -10 0
v -10 -10 0
v -11 -11 0
v -12 -11 0
v -12 -10 0
v -11 -10 0
v -12 -11 0
v -13 -11 0
v -13 -10 0
v -12 -10 0
v -13 -11 0
v -14 -11 0
v -14 -10 0
v -13 -10 0
v 0 -12 0
v -1 -12 0
v -1 -11 0
v 0 -11 0
v -1 -12 0
v -2 -12 0
v -2 -11 0
v -1 -11 0
v -2 -12 0
v -3 -12 0
v -3 -11 0
v -2 -11 0
v -3 -12 0
v -4 -12 0
v -4 -11 0
v -3 -11 0
v -4 -12 0
v -5 -12 0
v -5 -11 0
v -4 -11 0
v -5 -12 0
v -6 -12 0
v -6 -11 0
v -5 -11 0
v -6 -12 0
v -7 -12 0
v -7 -11 0
v -6 -11 0
v -7 -12 0
v -8 -12 0
v -8 -11 0
v -7 -11 0
v -8 -12 0
v -9 -12 0
v -9 -11 0
v -8 -11 0
v -9 -12 0
v -10 -12 0
v -10 -11 0
v -9 -11 0
v -10 -12 0
v -11 -12 0
v -11 -11 0
v -10 -11 0
v -11 -12 0
v -12 -12 0
v -12 -11 0
v -11 -11 0
v -12 -12 0
v -13 -12 0
v -13 -11 0
v -12 -11 0
v -13 -12 0
v -14 -12 0
v -14 -11 0
v -13 -11 0
v 0 -13 0
v -1 -13 0
v -1 -12 0
v 0 -12 0
v -1 -13 0
v -2 -13 0
v -2 -12 0
v -1 -12 0
v -2 -13 0
v -3 -13 0
v -3 -12 0
v -2 -12 0
v -3 -13 0
v -4 -13 0
v -4 -12 0
v -3 -12 0
v -4 -13 0
v -5 -13 0
v -5 -12 0
v -4 -12 0
v -5 -13 0
v -6 -13 0
v -6 -12 0
v -5 -12 0
v -6 -13 0
v -7 -13 0
v -7 -12 0
v -6 -12 0
v -7 -13 0
v -8 -13 0
v -8 -12 0
v -7 -12 0
v -8 -13 0
v -9 -13 0
v -9 -12 0
v -8 -12 0
v -9 -13 0
v -10 -13 0
v -10 -12 0
v -9 -12 0
v -10 -13 0
v -11 -13 0
v -11 -12 0
v -10 -12 0
v -11 -13 0
v -12 -13 0
v -12 -12 0
v -11 -12 0
v -12 -13 0
v -13 -13 0
v -13 -12 0
v -12 -12 0
v -13 -13 0
v -14 -13 0
v -14 -12 0
v -13 -12 0
v 0 -14 0
v -1 -14 0
v -1 -13 0
v 0 -13 0
v -1 -14 0
v -2 -14 0
v -2 -13 0
v -1 -13 0
v -2 -14 0
v -3 -14 0
v -3 -13 0
v -2 -13 0
v -3 -14 0
v -4 -14 0
v -4 -13 0
v -3 -13 0
v -4 -14 0
v -5 -14 0
v -5 -13 0
v -4 -13 0
v -5 -14 0
v -6 -14 0
v -6 -13 0
v -5 -13 0
v -6 -14 0
v -7 -14 0
v -7 -13 0
v -6 -13 0
v -7 -14 0
v -8 -14 0
v -8 -13 0
v -7 -13 0
v -8 -14 0
v -9 -14 0
v -9 -13 0
v -8 -13 0
v -9 -14 0
v -10 -14 0
v -10 -13 0
v -9 -13 0
v -10 -14 0
v -11 -14 0
v -11 -13 0
v -10 -13 0
v -11 -14 0
v -12 -14 0
v -12 -13 0
v -11 -13 0
v -12 -14 0
v -13 -14 0
v -13 -13 0
v -12 -13 0
v -13 -14 0
v -14 -14 0
v -14 -13 0
v -13 -13 0
v 0 -15 0
v -1 -15 0
v -1 -14 0
v 0 -14 0
v -10 -15 0
v -11 -15 0
v -11 -14 0
v -10 -14 0
v -11 -15 0
v -12 -15 0
v -12 -14 0
v -11 -14 0
v -12 -15 0
v -13 -15 0
v -13 -14 0
v -12 -14 0
v -13 -15 0
v -14 -15 0
v -14 -14 0
v -13 -14 0
v 0 -16 0
v -1 -16 0
v -1 -15 0
v 0 -15 0
v -10 -16 0
v -11 -16 0
v -11 -15 0
v -10 -15 0
v -11 -16 0
v -12 -16 0
v -12 -15 0
v -11 -15 0
v -12 -16 0
v -13 -16 0
v -13 -15 0
v -12 -15 0
v -13 -16 0
v -14 -16 0
v -14 -15 0
v -13 -15 0

# Texture cooridinates (Count = 39)
vt 0.5 0.3260869
vt 0.5238096 0.3260869
vt 0.5238096 0.3478261
vt 0.5 0.3478261
vt 0.4761905 0.3260869
vt 0.4761905 0.3478261
vt 0.5 0.3043478
vt 0.5238096 0.3043478
vt 0.4761905 0.3043478
vt 0.5 0.4565217
vt 0.5238096 0.4565217
vt 0.5238096 0.4782609
vt 0.5 0.4782609
vt 0.4761905 0.2826087
vt 0.5 0.2826087
vt 0.5238096 0.2826087
vt 0.547619 0.4565217
vt 0.547619 0.4782609
vt 0.5714286 0.4565217
vt 0.5714286 0.4782609
vt 0.5 0.4347826
vt 0.5238096 0.4347826
vt 0.4761905 0.2608696
vt 0.5 0.2608696
vt 0.5238096 0.2608696
vt 0.547619 0.4347826
vt 0.5714286 0.4347826
vt 0.547619 0.3043478
vt 0.5714286 0.3043478
vt 0.5714286 0.3260869
vt 0.547619 0.3260869
vt 0.4285714 0.3043478
vt 0.452381 0.3043478
vt 0.452381 0.3260869
vt 0.4285714 0.3260869
vt 0.5714286 0.3478261
vt 0.547619 0.3478261
vt 0.452381 0.3478261
vt 0.4285714 0.3478261

# Normal
vn 0 0 -1

# Mesh description
g Test_Area_mesh_0004

# Faces
f 1/1/1 2/2/1 3/3/1 4/4/1
f 5/1/1 6/2/1 7/3/1 8/4/1
f 9/5/1 10/1/1 11/4/1 12/6/1
f 13/1/1 14/2/1 15/3/1 16/4/1
f 17/5/1 18/1/1 19/4/1 20/6/1
f 21/1/1 22/2/1 23/3/1 24/4/1
f 25/5/1 26/1/1 27/4/1 28/6/1
f 29/1/1 30/2/1 31/3/1 32/4/1
f 33/5/1 34/1/1 35/4/1 36/6/1
f 37/1/1 38/2/1 39/3/1 40/4/1
f 41/5/1 42/1/1 43/4/1 44/6/1
f 45/1/1 46/2/1 47/3/1 48/4/1
f 49/5/1 50/1/1 51/4/1 52/6/1
f 53/1/1 54/2/1 55/3/1 56/4/1
f 57/7/1 58/8/1 59/2/1 60/1/1
f 61/7/1 62/8/1 63/2/1 64/1/1
f 65/9/1 66/7/1 67/1/1 68/5/1
f 69/7/1 70/8/1 71/2/1 72/1/1
f 73/9/1 74/7/1 75/1/1 76/5/1
f 77/7/1 78/8/1 79/2/1 80/1/1
f 81/9/1 82/7/1 83/1/1 84/5/1
f 85/7/1 86/8/1 87/2/1 88/1/1
f 89/9/1 90/7/1 91/1/1 92/5/1
f 93/7/1 94/8/1 95/2/1 96/1/1
f 97/9/1 98/7/1 99/1/1 100/5/1
f 101/7/1 102/8/1 103/2/1 104/1/1
f 105/9/1 106/7/1 107/1/1 108/5/1
f 109/7/1 110/8/1 111/2/1 112/1/1
f 113/7/1 114/8/1 115/2/1 116/1/1
f 117/9/1 118/7/1 119/1/1 120/5/1
f 121/7/1 122/8/1 123/2/1 124/1/1
f 125/9/1 126/7/1 127/1/1 128/5/1
f 129/7/1 130/8/1 131/2/1 132/1/1
f 133/9/1 134/7/1 135/1/1 136/5/1
f 137/9/1 138/7/1 139/1/1 140/5/1
f 141/7/1 142/8/1 143/2/1 144/1/1
f 145/9/1 146/7/1 147/1/1 148/5/1
f 149/7/1 150/8/1 151/2/1 152/1/1
f 153/9/1 154/7/1 155/1/1 156/5/1
f 157/7/1 158/8/1 159/2/1 160/1/1
f 161/5/1 162/1/1 163/4/1 164/6/1
f 165/1/1 166/2/1 167/3/1 168/4/1
f 169/10/1 170/11/1 171/12/1 172/13/1
f 173/14/1 174/15/1 175/7/1 176/9/1
f 177/15/1 178/16/1 179/8/1 180/7/1
f 181/14/1 182/15/1 183/7/1 184/9/1
f 185/15/1 186/16/1 187/8/1 188/7/1
f 189/14/1 190/15/1 191/7/1 192/9/1
f 193/14/1 194/15/1 195/7/1 196/9/1
f 197/15/1 198/16/1 199/8/1 200/7/1
f 201/14/1 202/15/1 203/7/1 204/9/1
f 205/15/1 206/16/1 207/8/1 208/7/1
f 209/11/1 210/17/1 211/18/1 212/12/1
f 213/17/1 214/19/1 215/20/1 216/18/1
f 217/9/1 218/7/1 219/1/1 220/5/1
f 221/7/1 222/8/1 223/2/1 224/1/1
f 225/21/1 226/22/1 227/11/1 228/10/1
f 229/23/1 230/24/1 231/15/1 232/14/1
f 233/24/1 234/25/1 235/16/1 236/15/1
f 237/23/1 238/24/1 239/15/1 240/14/1
f 241/24/1 242/25/1 243/16/1 244/15/1
f 245/23/1 246/24/1 247/15/1 248/14/1
f 249/23/1 250/24/1 251/15/1 252/14/1
f 253/24/1 254/25/1 255/16/1 256/15/1
f 257/23/1 258/24/1 259/15/1 260/14/1
f 261/24/1 262/25/1 263/16/1 264/15/1
f 265/22/1 266/26/1 267/17/1 268/11/1
f 269/26/1 270/27/1 271/19/1 272/17/1
f 273/5/1 274/1/1 275/4/1 276/6/1
f 277/1/1 278/2/1 279/3/1 280/4/1
f 281/28/1 282/29/1 283/30/1 284/31/1
f 285/32/1 286/33/1 287/34/1 288/35/1
f 289/33/1 290/9/1 291/5/1 292/34/1
f 293/9/1 294/7/1 295/1/1 296/5/1
f 297/7/1 298/8/1 299/2/1 300/1/1
f 301/31/1 302/30/1 303/36/1 304/37/1
f 305/35/1 306/34/1 307/38/1 308/39/1
f 309/34/1 310/5/1 311/6/1 312/38/1
f 313/5/1 314/1/1 315/4/1 316/6/1
f 317/1/1 318/2/1 319/3/1 320/4/1

